<?xml version="1.0" encoding="UTF-8"?>
<svg width="32" height="32" viewBox="0 0 32 32" fill="none" xmlns="http://www.w3.org/2000/svg">
  <!-- Bakgrund (mörkblå cirkel) -->
  <circle cx="16" cy="16" r="15" fill="#1a1d25" stroke="#5d7bf3" stroke-width="2"/>
  
  <!-- Hjärnsymbol (representerar minne/AI) -->
  <path d="M10 12C10 10.8954 10.8954 10 12 10H20C21.1046 10 22 10.8954 22 12V18C22 19.1046 21.1046 20 20 20H17V24H15V20H12C10.8954 20 10 19.1046 10 18V12Z" fill="#5d7bf3"/>
  
  <!-- Små cirklar som representerar synapser/anslutningar -->
  <circle cx="14" cy="14" r="1.5" fill="#ffffff"/>
  <circle cx="18" cy="14" r="1.5" fill="#ffffff"/>
  <circle cx="16" cy="17" r="1.5" fill="#ffffff"/>
  
  <!-- Linjer mellan punkterna som representerar anslutningar -->
  <line x1="14" y1="14" x2="16" y2="17" stroke="#ffffff" stroke-width="0.75"/>
  <line x1="18" y1="14" x2="16" y2="17" stroke="#ffffff" stroke-width="0.75"/>
  <line x1="14" y1="14" x2="18" y2="14" stroke="#ffffff" stroke-width="0.75"/>
</svg> 